<?xml version="1.0" standalone="no"?>
<!DOCTYPE svg PUBLIC "-//W3C//DTD SVG 20010904//EN"
 "http://www.w3.org/TR/2001/REC-SVG-20010904/DTD/svg10.dtd">
<svg version="1.0" xmlns="http://www.w3.org/2000/svg"
 width="418.000000pt" height="418.000000pt" viewBox="0 0 418.000000 418.000000"
 preserveAspectRatio="xMidYMid meet">
<metadata>
Created by potrace 1.14, written by Peter Selinger 2001-2017
</metadata>
<g transform="translate(0.000000,418.000000) scale(0.100000,-0.100000)"
fill="#000000" stroke="none">
<path d="M1677 4174 c-1 -1 -65 -5 -142 -8 -77 -3 -160 -8 -185 -11 -25 -2
-75 -7 -111 -9 -37 -3 -100 -10 -140 -16 -41 -6 -92 -13 -114 -16 -22 -3 -47
-7 -55 -9 -8 -2 -31 -7 -50 -10 -162 -27 -386 -108 -493 -179 -201 -134 -313
-355 -353 -701 -2 -22 -6 -53 -9 -70 -20 -143 -30 -1690 -12 -1935 22 -309 44
-441 100 -589 78 -208 194 -332 400 -425 166 -76 419 -134 707 -161 36 -4 85
-8 110 -11 257 -24 1273 -24 1490 0 19 2 68 7 108 10 41 4 88 8 105 11 67 9
173 25 193 29 12 2 38 7 59 10 65 11 127 27 233 62 305 101 457 245 546 517
39 119 70 310 81 497 15 260 18 405 18 925 0 718 -12 1030 -48 1215 -3 14 -8
41 -11 60 -21 125 -83 286 -145 377 -118 172 -348 295 -674 358 -109 21 -226
37 -360 50 -33 3 -82 8 -110 11 -120 12 -288 16 -698 18 -241 1 -439 1 -440 0z"/>
</g>
</svg>
