<?xml version="1.0" standalone="no"?>
<!DOCTYPE svg PUBLIC "-//W3C//DTD SVG 20010904//EN"
 "http://www.w3.org/TR/2001/REC-SVG-20010904/DTD/svg10.dtd">
<svg version="1.0" xmlns="http://www.w3.org/2000/svg"
 width="700.000000pt" height="700.000000pt" viewBox="0 0 700.000000 700.000000"
 preserveAspectRatio="xMidYMid meet">
<metadata>
Created by potrace 1.14, written by Peter Selinger 2001-2017
</metadata>
<g transform="translate(0.000000,700.000000) scale(0.100000,-0.100000)"
fill="#000000" stroke="none">
<path d="M1506 6356 c-52 -20 -105 -63 -142 -118 -25 -38 -37 -74 -60 -190
-39 -196 -39 -353 0 -483 57 -193 225 -493 644 -1153 117 -183 212 -335 212
-337 0 -3 -36 -5 -81 -5 -164 0 -834 -83 -1099 -136 -282 -57 -617 -164 -746
-240 -41 -24 -110 -92 -101 -100 2 -2 98 34 214 81 541 216 607 230 1418 294
372 29 415 32 415 26 0 -3 -35 -56 -79 -118 -528 -751 -892 -1542 -976 -2122
-21 -141 -21 -381 -1 -505 35 -217 91 -336 216 -461 94 -94 179 -144 300 -176
79 -21 378 -24 480 -4 125 24 273 63 354 93 146 55 118 67 -44 18 -293 -86
-592 -54 -763 84 -88 71 -179 222 -222 372 -57 197 -70 511 -31 759 55 346
192 737 411 1175 113 225 351 645 422 743 l35 48 27 -43 c146 -230 616 -840
931 -1208 121 -142 409 -458 479 -525 79 -76 41 -10 -55 95 -172 188 -509 598
-695 845 -224 298 -603 855 -617 908 -8 30 -7 32 22 39 17 4 126 13 241 20
288 18 1890 18 2210 0 968 -54 1428 -110 1983 -243 90 -21 170 -39 178 -39 41
0 -3 24 -163 88 -445 177 -513 186 -2008 274 -612 36 -1909 31 -2339 -9 l-70
-6 59 84 c346 499 804 1008 1213 1352 64 54 128 109 142 123 23 22 23 24 5 24
-50 -1 -637 -517 -855 -751 -187 -202 -315 -346 -438 -494 -229 -276 -262
-315 -270 -315 -12 0 -260 439 -363 644 -163 325 -265 613 -309 869 -54 320 1
518 158 563 123 36 289 0 489 -107 61 -32 114 -55 118 -50 7 12 -34 43 -139
106 -275 165 -586 257 -710 211z"/>
</g>
</svg>
